<svg width="120" height="78" viewBox="0 0 120 78" fill="none" xmlns="http://www.w3.org/2000/svg">
<g clip-path="url(#clip0_2735_84)">
<path d="M9.42302 16L5.29639 10.3949L6.61236 9.5826L11.2751 16H9.42302ZM1.77088 16V4.62739H3.36304V16H1.77088ZM2.87565 10.9961V9.56635H6.56362V10.9961H2.87565ZM6.75858 10.4924L5.26389 10.265L9.34179 4.62739H11.0802L6.75858 10.4924ZM18.0717 16V14.1804L17.9904 13.8392V10.7361C17.9904 10.0754 17.7955 9.56635 17.4055 9.20893C17.0265 8.84067 16.4524 8.65654 15.6834 8.65654C15.1744 8.65654 14.6761 8.74319 14.1887 8.91649C13.7013 9.07895 13.2897 9.30099 12.954 9.5826L12.3041 8.41285C12.7482 8.05542 13.2789 7.78464 13.8963 7.60052C14.5245 7.40556 15.1798 7.30808 15.8621 7.30808C17.0427 7.30808 17.9525 7.5951 18.5916 8.16915C19.2306 8.74319 19.5501 9.62051 19.5501 10.8011V16H18.0717ZM15.2448 16.0975C14.6057 16.0975 14.0425 15.9892 13.5551 15.7725C13.0785 15.5559 12.7103 15.2581 12.4503 14.879C12.1904 14.4891 12.0604 14.0504 12.0604 13.563C12.0604 13.0973 12.1687 12.6749 12.3854 12.2958C12.6128 11.9167 12.9756 11.6134 13.4739 11.386C13.9829 11.1585 14.6653 11.0448 15.5209 11.0448H18.2504V12.1658H15.5859C14.8061 12.1658 14.2808 12.2958 14.01 12.5557C13.7392 12.8157 13.6038 13.1298 13.6038 13.498C13.6038 13.9204 13.7717 14.2616 14.1075 14.5216C14.4433 14.7707 14.909 14.8952 15.5047 14.8952C16.0896 14.8952 16.5986 14.7653 17.0319 14.5053C17.476 14.2454 17.7955 13.8663 17.9904 13.3681L18.2991 14.4403C18.0933 14.9494 17.7305 15.3556 17.2106 15.6588C16.6907 15.9513 16.0354 16.0975 15.2448 16.0975ZM26.339 16.13C25.6242 16.13 24.9905 16.0162 24.4382 15.7888C23.8966 15.5613 23.4309 15.2256 23.041 14.7815C22.651 14.3266 22.3532 13.758 22.1474 13.0756C21.9524 12.3824 21.855 11.5701 21.855 10.6386C21.855 9.90212 21.9199 9.24142 22.0499 8.65654C22.1799 8.07167 22.364 7.55178 22.6023 7.09687C22.8514 6.64197 23.1547 6.24663 23.5121 5.91087C23.8804 5.57511 24.2919 5.29892 24.7468 5.08229C25.2126 4.85484 25.7216 4.68155 26.274 4.5624L30.2057 3.68509L30.4332 5.13103L26.8102 5.91087C26.5935 5.95419 26.3336 6.01918 26.0303 6.10583C25.7271 6.19248 25.4184 6.32787 25.1043 6.51199C24.7902 6.68529 24.4977 6.92899 24.227 7.24309C23.9562 7.55719 23.7396 7.96877 23.5771 8.47783C23.4146 8.97606 23.3334 9.59343 23.3334 10.3299C23.3334 10.5357 23.3388 10.6928 23.3496 10.8011C23.3605 10.9094 23.3713 11.0177 23.3821 11.126C23.4038 11.2343 23.42 11.3968 23.4309 11.6134L22.781 10.9473C22.9543 10.3516 23.2305 9.83171 23.6096 9.38764C23.9887 8.94357 24.4436 8.60239 24.9743 8.36411C25.5159 8.11499 26.1061 7.99043 26.7452 7.99043C27.5467 7.99043 28.2561 8.16373 28.8735 8.51032C29.5017 8.85692 29.9945 9.33348 30.3519 9.94002C30.7093 10.5466 30.8881 11.2398 30.8881 12.0196C30.8881 12.8103 30.6985 13.5197 30.3194 14.1479C29.9512 14.7653 29.4259 15.2527 28.7435 15.6101C28.0612 15.9567 27.2597 16.13 26.339 16.13ZM26.4852 14.8302C27.0376 14.8302 27.525 14.7111 27.9474 14.4728C28.3698 14.2237 28.7002 13.8934 28.9385 13.4818C29.1768 13.0594 29.2959 12.5882 29.2959 12.0683C29.2959 11.5484 29.1768 11.0881 28.9385 10.6874C28.7002 10.2866 28.3698 9.97252 27.9474 9.74506C27.525 9.50678 27.0268 9.38764 26.4527 9.38764C25.9112 9.38764 25.4238 9.50137 24.9905 9.72882C24.5573 9.94544 24.2215 10.2541 23.9833 10.6549C23.745 11.0448 23.6258 11.4997 23.6258 12.0196C23.6258 12.5395 23.745 13.016 23.9833 13.4493C24.2324 13.8717 24.5681 14.2075 24.9905 14.4566C25.4238 14.7057 25.922 14.8302 26.4852 14.8302ZM33.1156 16V7.38931H34.6753V13.6605L39.9554 7.38931H41.3689V16H39.8092V9.72882L34.5453 16H33.1156ZM44.3962 16V7.38931H45.9559V11.0448H50.8623V7.38931H52.422V16H50.8623V12.3933H45.9559V16H44.3962ZM59.2889 16.0975C58.3682 16.0975 57.5559 15.9079 56.8519 15.5288C56.1587 15.1498 55.6171 14.6299 55.2272 13.9692C54.8481 13.3085 54.6586 12.5503 54.6586 11.6947C54.6586 10.839 54.8427 10.0808 55.211 9.42013C55.5901 8.75944 56.1045 8.24496 56.7544 7.87671C57.4151 7.49762 58.157 7.30808 58.9802 7.30808C59.8142 7.30808 60.5507 7.49221 61.1897 7.86046C61.8287 8.22872 62.327 8.74861 62.6844 9.42013C63.0527 10.0808 63.2368 10.8552 63.2368 11.7434C63.2368 11.8084 63.2314 11.8842 63.2205 11.9708C63.2205 12.0575 63.2151 12.1387 63.2043 12.2145H55.8771V11.0935H62.392L61.7583 11.4834C61.7692 10.9311 61.6554 10.4383 61.4172 10.005C61.1789 9.57177 60.8485 9.23601 60.4261 8.99772C60.0145 8.74861 59.5326 8.62405 58.9802 8.62405C58.4386 8.62405 57.9566 8.74861 57.5342 8.99772C57.1118 9.23601 56.7815 9.57718 56.5432 10.0213C56.3049 10.4545 56.1858 10.9527 56.1858 11.5159V11.7759C56.1858 12.3499 56.3157 12.8644 56.5757 13.3193C56.8465 13.7634 57.2201 14.11 57.6967 14.3591C58.1733 14.6082 58.7202 14.7328 59.3376 14.7328C59.8467 14.7328 60.307 14.6461 60.7186 14.4728C61.141 14.2995 61.5092 14.0396 61.8233 13.693L62.6844 14.7003C62.2945 15.1552 61.8071 15.5018 61.2222 15.7401C60.6482 15.9783 60.0037 16.0975 59.2889 16.0975ZM66.9974 16V8.34786L67.3873 8.75402H63.8455V7.38931H71.7089V8.75402H68.1834L68.557 8.34786V16H66.9974Z" fill="#09152D"/>
<path d="M0 67.2603H101.728L120 81.247H18.2716L0 67.2603Z" fill="url(#paint0_linear_2735_84)"/>
<path fill-rule="evenodd" clip-rule="evenodd" d="M47.1819 24.6021H73.1133C73.9145 19.5799 76.2176 17.0458 80.0226 17C83.8275 17.0458 86.1276 19.5799 86.9288 24.6022H102.241V36.5939C104.594 36.8504 106.556 37.4574 107.952 38.4005C108.236 38.5918 108.499 38.7973 108.743 39.0169C110.159 40.2915 110.911 42.0422 111 44.2689C110.911 46.4956 110.159 48.2462 108.743 49.5209C108.499 49.7404 108.236 49.9459 107.952 50.1372C106.556 51.0803 104.682 51.6802 102.329 51.9367V67.705H65.0309V62.1016H51.0223V57.9236C54.0356 57.3076 56.1656 56.7178 57.4122 56.1541C64.2233 52.2741 65.9092 46.6424 62.4699 39.2592C60.0914 35.1042 54.9954 33.0272 47.1819 33.0283V24.6021ZM90.976 37.4558C90.5002 34.2099 88.7157 32.2216 85.3338 31.2019C84.1273 30.845 83.7024 30.811 77.7373 30.743L71.3984 30.6751V60.1264L78.2472 60.0584C84.0083 60.0074 85.2149 59.9565 85.8947 59.7185C89.6844 58.427 91.4518 55.8608 91.4518 51.6462C91.4518 48.6212 90.3302 46.4799 88.2399 45.4942L87.3902 45.1033L88.1039 44.6445C90.3302 43.2339 91.4179 40.5148 90.976 37.4558ZM77.4545 39.8616C77.4545 37.942 77.5033 36.3151 77.5847 36.2501C77.7961 36.0223 81.8795 36.2501 82.5139 36.5104C83.669 37.0147 84.2058 38.2023 84.0919 40.0568C84.0106 41.4559 83.5713 42.3018 82.6441 42.8224C81.9933 43.1966 81.7168 43.2291 79.6995 43.2779L77.4545 43.343V39.8616ZM77.4545 54.8932V51.2166V47.54H79.9761C82.7579 47.54 83.1158 47.6213 83.8479 48.4998C84.7101 49.5409 84.8565 52.0625 84.1082 53.4128C83.4412 54.6166 82.9694 54.763 80.0249 54.8281L77.4545 54.8932ZM43.253 24.614H0V67.806H14.4583C14.9952 73.6625 18.7084 75.2486 20.4979 75.3097C26.7937 75.7977 28.693 70.5105 28.8557 67.806H43.558V67.5009C43.5304 66.3125 43.4888 65.1964 43.45 64.1524C43.2315 58.2834 43.0979 54.6942 45.9983 53.3476C48.7313 52.0787 51.6921 51.3954 52.8309 51.2124C56.9793 48.7234 56.0642 44.6848 55.0881 42.9767C51.379 38.4378 45.6526 39.7027 43.253 40.9025V24.614ZM33.0623 38.6227C32.6068 35.5155 30.8987 33.6121 27.6613 32.636C26.5063 32.2944 26.0996 32.2619 20.3894 32.1968L14.3214 32.1317V60.3245L20.8775 60.2594C26.3924 60.2106 27.5474 60.1618 28.1982 59.934C31.826 58.6977 33.5178 56.2412 33.5178 52.2066C33.5178 49.3109 32.4442 47.2611 30.4432 46.3176L29.6298 45.9434L30.313 45.5042C32.4442 44.1539 33.4853 41.551 33.0623 38.6227ZM20.4637 39.8618C20.4637 37.9422 20.5125 36.3153 20.5939 36.2503C20.8054 36.0225 24.8887 36.2503 25.5231 36.5106C26.6782 37.0149 27.215 38.2024 27.1011 40.057C27.0198 41.4561 26.5806 42.302 25.6533 42.8226C25.0026 43.1968 24.726 43.2293 22.7087 43.2781L20.4637 43.3432V39.8618ZM20.4637 54.8934V51.2168V47.5401H22.9853C25.7672 47.5401 26.1251 47.6215 26.8571 48.5C27.7193 49.5411 27.8657 52.0627 27.1174 53.413C26.4504 54.6168 25.9786 54.7632 23.0341 54.8283L20.4637 54.8934Z" fill="url(#paint1_linear_2735_84)"/>
</g>
<defs>
<linearGradient id="paint0_linear_2735_84" x1="59.9205" y1="67.2603" x2="59.7997" y2="79.5769" gradientUnits="userSpaceOnUse">
<stop stop-color="#7387D4" stop-opacity="0.15"/>
<stop offset="0.848022" stop-color="#5C6EAA" stop-opacity="0"/>
</linearGradient>
<linearGradient id="paint1_linear_2735_84" x1="38.0917" y1="31.0028" x2="67.0508" y2="56.7204" gradientUnits="userSpaceOnUse">
<stop stop-color="#7387D4"/>
<stop offset="1" stop-color="#29364E"/>
</linearGradient>
<clipPath id="clip0_2735_84">
<rect width="120" height="78" fill="white"/>
</clipPath>
</defs>
</svg>
