<svg width="120" height="75" viewBox="0 0 120 75" fill="none" xmlns="http://www.w3.org/2000/svg">
<g clip-path="url(#clip0_2735_93)">
<path d="M0 59.2612H101.728L120 73.248H18.2716L0 59.2612Z" fill="url(#paint0_linear_2735_93)"/>
<path d="M1.77088 11.9551V0.582469H11.5676V11.9551H9.9754V1.57351L10.3653 1.99592H2.97313L3.37929 1.57351V11.9551H1.77088ZM18.542 12.0526C17.6756 12.0526 16.9066 11.863 16.235 11.4839C15.5635 11.1048 15.0328 10.5849 14.6429 9.92426C14.253 9.25273 14.058 8.49456 14.058 7.64973C14.058 6.79408 14.253 6.03591 14.6429 5.37521C15.0328 4.71452 15.5635 4.20004 16.235 3.83179C16.9066 3.4527 17.6756 3.26316 18.542 3.26316C19.3977 3.26316 20.1613 3.4527 20.8328 3.83179C21.5152 4.20004 22.0459 4.71452 22.425 5.37521C22.8149 6.02507 23.0099 6.78325 23.0099 7.64973C23.0099 8.50539 22.8149 9.26356 22.425 9.92426C22.0459 10.5849 21.5152 11.1048 20.8328 11.4839C20.1613 11.863 19.3977 12.0526 18.542 12.0526ZM18.542 10.6878C19.0944 10.6878 19.5872 10.5633 20.0205 10.3142C20.4646 10.0651 20.8112 9.71305 21.0603 9.25815C21.3094 8.79241 21.4339 8.25627 21.4339 7.64973C21.4339 7.03236 21.3094 6.50164 21.0603 6.05757C20.8112 5.60266 20.4646 5.25065 20.0205 5.00154C19.5872 4.75243 19.0944 4.62787 18.542 4.62787C17.9897 4.62787 17.4969 4.75243 17.0636 5.00154C16.6304 5.25065 16.2838 5.60266 16.0238 6.05757C15.7639 6.50164 15.6339 7.03236 15.6339 7.64973C15.6339 8.25627 15.7639 8.79241 16.0238 9.25815C16.2838 9.71305 16.6304 10.0651 17.0636 10.3142C17.4969 10.5633 17.9897 10.6878 18.542 10.6878ZM29.8273 12.0526C29.1125 12.0526 28.4572 11.8901 27.8615 11.5652C27.2766 11.2294 26.8055 10.7366 26.448 10.0867C26.1014 9.43686 25.9282 8.62453 25.9282 7.64973C25.9282 6.67494 26.096 5.86261 26.4318 5.21275C26.7784 4.56288 27.2441 4.07548 27.829 3.75055C28.4247 3.42562 29.0908 3.26316 29.8273 3.26316C30.6722 3.26316 31.4195 3.44728 32.0694 3.81554C32.7192 4.1838 33.2337 4.69827 33.6128 5.35896C33.9919 6.00883 34.1814 6.77242 34.1814 7.64973C34.1814 8.52705 33.9919 9.29605 33.6128 9.95675C33.2337 10.6174 32.7192 11.1319 32.0694 11.5002C31.4195 11.8684 30.6722 12.0526 29.8273 12.0526ZM25.262 15.1069V3.34439H26.7567V5.66765L26.6592 7.66598L26.8217 9.66431V15.1069H25.262ZM29.6974 10.6878C30.2497 10.6878 30.7426 10.5633 31.1758 10.3142C31.6199 10.0651 31.9665 9.71305 32.2156 9.25815C32.4755 8.79241 32.6055 8.25627 32.6055 7.64973C32.6055 7.03236 32.4755 6.50164 32.2156 6.05757C31.9665 5.60266 31.6199 5.25065 31.1758 5.00154C30.7426 4.75243 30.2497 4.62787 29.6974 4.62787C29.1558 4.62787 28.663 4.75243 28.2189 5.00154C27.7857 5.25065 27.4391 5.60266 27.1791 6.05757C26.93 6.50164 26.8055 7.03236 26.8055 7.64973C26.8055 8.25627 26.93 8.79241 27.1791 9.25815C27.4391 9.71305 27.7857 10.0651 28.2189 10.3142C28.663 10.5633 29.1558 10.6878 29.6974 10.6878ZM37.836 11.9551V4.30294L38.2259 4.7091H34.6842V3.34439H42.5475V4.7091H39.022L39.3957 4.30294V11.9551H37.836ZM49.4225 11.9551V10.1355L49.3413 9.79428V6.69118C49.3413 6.03049 49.1463 5.52143 48.7564 5.16401C48.3773 4.79575 47.8032 4.61162 47.0342 4.61162C46.5252 4.61162 46.027 4.69827 45.5396 4.87157C45.0522 5.03403 44.6406 5.25607 44.3048 5.53768L43.655 4.36792C44.099 4.0105 44.6297 3.73972 45.2471 3.55559C45.8753 3.36063 46.5306 3.26316 47.213 3.26316C48.3935 3.26316 49.3033 3.55018 49.9424 4.12422C50.5814 4.69827 50.9009 5.57559 50.9009 6.75617V11.9551H49.4225ZM46.5956 12.0526C45.9566 12.0526 45.3933 11.9442 44.9059 11.7276C44.4294 11.511 44.0611 11.2132 43.8012 10.8341C43.5412 10.4441 43.4113 10.0055 43.4113 9.51809C43.4113 9.05236 43.5196 8.62994 43.7362 8.25086C43.9636 7.87177 44.3265 7.5685 44.8247 7.34105C45.3338 7.1136 46.0161 6.99987 46.8718 6.99987H49.6012V8.12088H46.9368C46.1569 8.12088 45.6316 8.25086 45.3608 8.5108C45.0901 8.77075 44.9547 9.08485 44.9547 9.4531C44.9547 9.87552 45.1226 10.2167 45.4583 10.4766C45.7941 10.7258 46.2598 10.8503 46.8555 10.8503C47.4404 10.8503 47.9495 10.7203 48.3827 10.4604C48.8268 10.2004 49.1463 9.82136 49.3413 9.32313L49.6499 10.3954C49.4442 10.9045 49.0813 11.3106 48.5614 11.6139C48.0415 11.9063 47.3863 12.0526 46.5956 12.0526ZM52.2797 11.9388L52.3772 10.6229C52.453 10.6337 52.5234 10.6445 52.5884 10.6554C52.6534 10.6662 52.713 10.6716 52.7671 10.6716C53.1137 10.6716 53.3845 10.5525 53.5795 10.3142C53.7852 10.0759 53.9369 9.76179 54.0344 9.37187C54.1318 8.97112 54.2022 8.52163 54.2456 8.0234C54.2889 7.52518 54.3214 7.02695 54.343 6.52872L54.4893 3.34439H61.1016V11.9551H59.542V4.2542L59.9156 4.7091H55.4966L55.854 4.23795L55.7403 6.6262C55.7078 7.38437 55.6482 8.09381 55.5615 8.7545C55.4749 9.4152 55.3395 9.99466 55.1554 10.4929C54.9821 10.9911 54.7384 11.381 54.4243 11.6626C54.121 11.9442 53.7257 12.0851 53.2383 12.0851C53.0975 12.0851 52.9458 12.0688 52.7834 12.0363C52.6317 12.0146 52.4639 11.9822 52.2797 11.9388Z" fill="#09152D"/>
<path fill-rule="evenodd" clip-rule="evenodd" d="M77.7555 7.37673C76.5501 7.81657 75.9636 8.22381 75.1165 9.18494C73.7971 10.6836 72.7871 12.6484 72.5916 15.5969L72.559 16.1671L59.755 16.216L46.7391 16.2485V19.0668C46.7243 20.1905 46.7312 21.4792 46.7359 22.3784C46.7377 22.7105 46.7391 22.9904 46.7391 23.1881V24.5076L49.0687 24.6053C55.6988 24.8823 60.4066 27.2932 62.4429 31.4309C63.4529 33.4835 63.7461 34.9659 63.632 37.5072C63.5342 39.6737 63.3062 40.6186 62.394 42.4756C61.7587 43.7788 60.2111 45.587 59.0057 46.4178C57.2952 47.5744 54.7051 48.617 52.571 48.9917C52.4159 49.019 52.2519 49.0477 52.0908 49.0758L52.0711 49.0792L52.0695 49.0795C51.663 49.1506 51.2779 49.2178 51.105 49.2523L50.6487 49.3501V51.4515V53.5529H57.5721H64.4954V56.4037V59.2545L83.115 59.2218L101.718 59.173L101.8 51.2723L101.881 43.3716L103.022 43.2576C104.504 43.111 105.4 42.8829 106.426 42.3616C108.576 41.2864 109.733 39.9507 110.221 38.0122C110.922 35.1777 109.472 32.1803 106.785 30.8608C105.985 30.4681 104.172 30.0365 103.039 29.9485H101.599V16.2648H101.637V16.2485L94.3552 16.216L87.0735 16.1671L86.8617 14.5543C86.5359 11.9479 85.9006 11.156 84.744 9.55961C83.9784 8.50075 83.115 7.86544 81.8118 7.39302C80.3946 6.87174 79.1076 6.87174 77.7555 7.37673ZM84.6951 23.5628C87.9369 24.5402 89.6473 26.4461 90.1034 29.5576C90.527 32.4898 89.4845 35.0962 87.3504 36.4482L86.6663 36.8881L87.4808 37.2628C89.4845 38.2076 90.5595 40.2602 90.5595 43.1598C90.5595 47.1998 88.8655 49.6596 85.2327 50.8976C84.5811 51.1256 83.4246 51.1745 77.9022 51.2234L71.3373 51.2886V37.1813V23.0578L77.4134 23.123C83.1313 23.1881 83.5386 23.2207 84.6951 23.5628ZM77.3779 46.5854V42.9038V39.2223H79.9028C82.6884 39.2223 83.0468 39.3037 83.7799 40.1834C84.6432 41.226 84.7898 43.7509 84.0405 45.103C83.3726 46.3085 82.9002 46.4551 79.9516 46.5203L77.3779 46.5854ZM77.5081 27.9112C77.4267 27.9763 77.3779 29.6054 77.3779 31.5276V35.0137L79.6259 34.9486C81.6458 34.8997 81.9228 34.8671 82.5744 34.4925C83.5029 33.9711 83.9427 33.124 84.0242 31.7231C84.1382 29.866 83.6006 28.6768 82.4441 28.1718C81.8087 27.9112 77.72 27.6831 77.5081 27.9112ZM0 15.9473H21.6557H43.3114V32.2577C45.7141 31.0563 51.4483 29.7898 55.1625 34.3347C56.1398 36.0452 57.0562 40.0892 52.9022 42.5816C51.7619 42.7649 48.797 43.449 46.0604 44.7197C43.1561 46.0681 43.2898 49.6621 43.5086 55.539C43.5476 56.5844 43.5891 57.7021 43.6169 58.8921V59.1975H28.8946C28.7317 61.9058 26.8298 67.2001 20.5256 66.7114C18.7337 66.6503 15.0154 65.062 14.4778 59.1975H0V15.9473ZM27.7102 23.98C30.9519 24.9574 32.6624 26.8633 33.1185 29.9748C33.5421 32.9069 32.4995 35.5133 30.3655 36.8655L29.6813 37.3052L30.4958 37.68C32.4995 38.6248 33.5746 40.6774 33.5746 43.577C33.5746 47.617 31.8804 50.0767 28.2478 51.3148C27.5962 51.5428 26.4395 51.5917 20.9172 51.6406L14.3522 51.7058V23.4749L20.4285 23.5402C26.1463 23.6053 26.5536 23.6379 27.7102 23.98ZM20.4631 31.2144C20.4631 29.2922 20.5119 27.6631 20.5934 27.598C20.8052 27.3699 24.894 27.598 25.5292 27.8586C26.6859 28.3636 27.2234 29.5528 27.1094 31.4099C27.0279 32.8108 26.5882 33.6579 25.6596 34.1791C25.008 34.5539 24.731 34.5865 22.7111 34.6354L20.4631 34.7005V31.2144ZM20.4631 46.2637V42.5821V38.9006H22.9881C25.7736 38.9006 26.132 38.982 26.8651 39.8617C27.7284 40.9043 27.875 43.4292 27.1257 44.7812C26.4578 45.9867 25.9855 46.1333 23.037 46.1986L20.4631 46.2637Z" fill="url(#paint1_linear_2735_93)"/>
</g>
<defs>
<linearGradient id="paint0_linear_2735_93" x1="59.9205" y1="59.2612" x2="59.7997" y2="71.5779" gradientUnits="userSpaceOnUse">
<stop stop-color="#7387D4" stop-opacity="0.15"/>
<stop offset="0.848022" stop-color="#5C6EAA" stop-opacity="0"/>
</linearGradient>
<linearGradient id="paint1_linear_2735_93" x1="37.8847" y1="21.3392" x2="67.4251" y2="46.8183" gradientUnits="userSpaceOnUse">
<stop stop-color="#7387D4"/>
<stop offset="1" stop-color="#29364E"/>
</linearGradient>
<clipPath id="clip0_2735_93">
<rect width="120" height="73.0909" fill="white" transform="translate(0 0.954102)"/>
</clipPath>
</defs>
</svg>
